<svg width="57" height="51" viewBox="0 0 57 51" fill="none" xmlns="http://www.w3.org/2000/svg">
    <path d="M25.0625 14.6226L27.5347 12.0124L24.8352 9.16224H40.4354C44.9535 9.16224 48.6476 13.0475 48.6476 17.8328V23.3382H52.1427V17.8328C52.1427 11.0224 46.9 5.48699 40.4496 5.48699H24.8352L27.5347 2.63679L25.0625 0.0266113L20.6296 4.70693L18.1575 7.31711L20.6296 9.92729L25.0625 14.6226Z" fill="black"/>
    <path d="M39.7111 43.6946L37.2389 41.0844L32.8061 36.4041L30.3481 39.0143L33.0476 41.8645H17.4331C12.915 41.8645 9.22097 37.9792 9.22097 33.1939V27.6885H5.72583V33.1939C5.72583 40.0043 10.9685 45.5397 17.4189 45.5397H33.0192L30.3197 48.3899L32.7918 51.0001L37.2247 46.3198L39.7111 43.6946Z" fill="black"/>
    <g clip-path="url(#clip0_2316_72)">
    <path d="M51.7957 31.1784H54.6248C54.6742 31.1798 54.7234 31.171 54.7694 31.1526C54.8153 31.1342 54.8571 31.1065 54.892 31.0713C54.927 31.0361 54.9545 30.994 54.9728 30.9478C54.9911 30.9015 54.9998 30.8519 54.9984 30.8022C55.0016 30.7522 54.9937 30.7021 54.9752 30.6556C54.9568 30.6091 54.9282 30.5674 54.8916 30.5334L51.3687 26.9859C51.335 26.9491 51.2935 26.9203 51.2473 26.9017C51.2012 26.8831 51.1514 26.8751 51.1018 26.8784C51.0524 26.877 51.0032 26.8858 50.9572 26.9042C50.9113 26.9226 50.8695 26.9503 50.8345 26.9855C50.7996 27.0207 50.7721 27.0628 50.7538 27.109C50.7355 27.1553 50.7268 27.2049 50.7282 27.2546V30.1034C50.729 30.3882 50.8418 30.6612 51.0418 30.8626C51.2418 31.064 51.5129 31.1775 51.7957 31.1784Z" fill="black"/>
    <path d="M54.4645 32.7909H50.7281C50.3036 32.79 49.8968 32.6199 49.5967 32.3177C49.2966 32.0155 49.1276 31.6058 49.1267 31.1784V27.4159C49.1267 27.2734 49.0705 27.1366 48.9704 27.0358C48.8703 26.935 48.7345 26.8784 48.5929 26.8784H43.2551C42.8307 26.8793 42.4239 27.0495 42.1238 27.3517C41.8237 27.6539 41.6547 28.0635 41.6538 28.4909V41.391C41.6547 41.8183 41.8237 42.228 42.1238 42.5302C42.4239 42.8324 42.8307 43.0026 43.2551 43.0035H53.397C53.8214 43.0026 54.2282 42.8324 54.5283 42.5302C54.8284 42.228 54.9974 41.8183 54.9983 41.391V33.3284C54.9983 33.2578 54.9845 33.188 54.9577 33.1227C54.9308 33.0575 54.8915 32.9983 54.842 32.9484C54.7924 32.8985 54.7335 32.8589 54.6688 32.8318C54.604 32.8048 54.5346 32.7909 54.4645 32.7909ZM43.7889 32.2534C43.7949 32.1144 43.8535 31.9829 43.9528 31.886C44.0521 31.7892 44.1845 31.7343 44.3227 31.7327H46.5079C46.5762 31.7323 46.644 31.7454 46.7073 31.7713C46.7706 31.7973 46.8282 31.8355 46.8768 31.8838C46.9255 31.9322 46.9642 31.9897 46.9907 32.0531C47.0173 32.1165 47.0312 32.1846 47.0316 32.2534V32.7876C47.0274 32.9276 46.9701 33.0606 46.8714 33.1594C46.7727 33.2581 46.6402 33.315 46.5012 33.3184H44.3227C44.2531 33.3197 44.184 33.3069 44.1194 33.2807C44.0548 33.2546 43.9962 33.2155 43.947 33.1659C43.8977 33.1164 43.859 33.0573 43.8329 32.9923C43.8069 32.9273 43.7942 32.8577 43.7956 32.7876L43.7889 32.2534ZM51.7956 39.2309C51.7956 39.3734 51.7394 39.5101 51.6393 39.6109C51.5392 39.7117 51.4034 39.7684 51.2618 39.7684H44.3227C44.1811 39.7684 44.0454 39.7117 43.9453 39.6109C43.8452 39.5101 43.7889 39.3734 43.7889 39.2309V38.7034C43.7889 38.5609 43.8452 38.4242 43.9453 38.3234C44.0454 38.2226 44.1811 38.1659 44.3227 38.1659H51.2618C51.4034 38.1659 51.5392 38.2226 51.6393 38.3234C51.7394 38.4242 51.7956 38.5609 51.7956 38.7034V39.2309ZM52.8632 36.0059C52.8645 36.0773 52.8517 36.1483 52.8255 36.2147C52.7992 36.281 52.7601 36.3415 52.7104 36.3925C52.6607 36.4434 52.6014 36.4839 52.536 36.5116C52.4706 36.5392 52.4003 36.5535 52.3294 36.5534H44.3227C44.1811 36.5534 44.0454 36.4968 43.9453 36.396C43.8452 36.2952 43.7889 36.1585 43.7889 36.0159V35.4784C43.7889 35.3359 43.8452 35.1992 43.9453 35.0984C44.0454 34.9976 44.1811 34.9409 44.3227 34.9409H52.3294C52.471 34.9409 52.6067 34.9976 52.7068 35.0984C52.8069 35.1992 52.8632 35.3359 52.8632 35.4784V36.0059Z" fill="black"/>
    </g>
    <path d="M9.03528 6.99097C4.90485 6.99097 1.41979 9.87878 0.774414 13.771C0.774414 13.9594 0.774414 14.1477 0.90349 14.2733C1.03257 14.4616 1.22618 14.5244 1.41979 14.5244H16.6508C16.8444 14.5244 17.038 14.4616 17.1671 14.2733C17.2962 14.1477 17.3607 13.9594 17.2962 13.771C16.6508 9.87878 13.1657 6.99097 9.03528 6.99097ZM6.45376 12.0132C6.45376 12.3899 6.19561 12.641 5.80838 12.641C5.42115 12.641 5.163 12.3899 5.163 12.0132V10.7577C5.163 10.381 5.42115 10.1299 5.80838 10.1299C6.19561 10.1299 6.45376 10.381 6.45376 10.7577V12.0132ZM9.68066 11.3855C9.68066 11.7621 9.42251 12.0132 9.03528 12.0132C8.64806 12.0132 8.3899 11.7621 8.3899 11.3855V10.1299C8.3899 9.75322 8.64806 9.50211 9.03528 9.50211C9.42251 9.50211 9.68066 9.75322 9.68066 10.1299V11.3855ZM12.9076 12.0132C12.9076 12.3899 12.6494 12.641 12.2622 12.641C11.875 12.641 11.6168 12.3899 11.6168 12.0132V10.7577C11.6168 10.381 11.875 10.1299 12.2622 10.1299C12.6494 10.1299 12.9076 10.381 12.9076 10.7577V12.0132Z" fill="black"/>
    <path d="M1.87158 16.2822C2.64604 16.7844 3.74318 16.7844 4.51764 16.2822C4.90487 16.031 5.35664 16.031 5.74386 16.2822C6.51832 16.7844 7.61547 16.7844 8.38992 16.2822C8.77715 16.031 9.22892 16.031 9.61615 16.2822C10.3906 16.7844 11.4877 16.7844 12.2622 16.2822C12.6494 16.031 13.1012 16.031 13.4884 16.2822C13.8757 16.5333 14.3274 16.6588 14.8437 16.6588C15.36 16.6588 15.7473 16.5333 16.199 16.2822L17.1671 15.6544C17.4898 15.466 17.5543 15.0894 17.3607 14.7755C17.1671 14.4616 16.7799 14.3988 16.4572 14.5871L15.4891 15.2149C15.1019 15.466 14.6501 15.466 14.2629 15.2149C13.4884 14.7127 12.3913 14.7127 11.6168 15.2149C11.2296 15.466 10.7778 15.466 10.3906 15.2149C9.61615 14.7127 8.519 14.7127 7.74454 15.2149C7.35732 15.466 6.90555 15.466 6.51832 15.2149C5.74386 14.7127 4.64672 14.7127 3.87226 15.2149C3.48503 15.466 3.03327 15.466 2.64604 15.2149L1.67797 14.5871C1.35528 14.3988 0.968049 14.4616 0.774435 14.7755C0.580821 15.0894 0.645359 15.466 0.968049 15.6544L1.87158 16.2822Z" fill="black"/>
    <path d="M17.5543 20.1743C17.877 19.8604 18.0707 19.421 18.0707 18.9188C18.0707 17.8515 17.2317 17.0354 16.1345 17.0354H1.93614C0.838995 17.0354 0 17.8515 0 18.9188C0 19.421 0.193614 19.8604 0.516304 20.1743H17.5543Z" fill="black"/>
    <path d="M1.29077 20.8022V21.0534C1.29077 22.3089 2.32338 23.3134 3.61414 23.3134H14.392C15.6828 23.3134 16.7154 22.3089 16.7154 21.0534V20.8022H1.29077Z" fill="black"/>
    <defs>
    <clipPath id="clip0_2316_72">
    <rect width="17.3478" height="17.4688" fill="white" transform="translate(39.6521 26.2065)"/>
    </clipPath>
    </defs>
    </svg>
    