<svg width="62" height="64" viewBox="0 0 62 64" fill="none" xmlns="http://www.w3.org/2000/svg">
    <path d="M44.9507 0H2.06748C1.17018 0 0.443115 0.727066 0.443115 1.62437V62.3756C0.443115 63.2729 1.17018 64 2.06748 64H44.9507C45.848 64 46.5751 63.2729 46.5751 62.3756V1.62437C46.5751 0.727066 45.848 0 44.9507 0ZM43.3264 60.7513H3.69185V3.24873H43.3264V60.7513Z" fill="black"/>
    <path d="M9.2147 19.0051H37.8035C38.7008 19.0051 39.4279 18.278 39.4279 17.3807V8.77158C39.4279 7.87428 38.7008 7.14722 37.8035 7.14722H9.2147C8.3174 7.14722 7.59033 7.87428 7.59033 8.77158V17.3807C7.59033 18.278 8.31761 19.0051 9.2147 19.0051ZM10.8391 10.3959H36.1792V15.7564H10.8391V10.3959Z" fill="black"/>
    <path d="M50.4739 48.8268C50.4739 49.0789 50.5326 49.3277 50.6454 49.5534L54.5625 57.3879C54.8378 57.938 55.4 58.2858 56.0153 58.2858C56.6307 58.2858 57.1931 57.9382 57.4682 57.3879L61.3855 49.5534C61.4983 49.3277 61.557 49.0789 61.557 48.8268V10.3419C61.557 9.4446 60.83 8.71753 59.9327 8.71753H52.0982C51.2009 8.71753 50.4739 9.4446 50.4739 10.3419V48.8268ZM53.7226 47.2024V17.1891H58.3083V47.2024H53.7226ZM58.3083 11.9663V13.9404H53.7226V11.9663H58.3083ZM56.0153 53.0291L54.7265 50.4514H57.3042L56.0153 53.0291Z" fill="black"/>
    <path d="M33.1895 42.719H32.3909V43.4755H33.1895V42.719Z" fill="black"/>
    <path d="M36.4558 40.3706H35.6572V41.1271H36.4558V40.3706Z" fill="black"/>
    <path d="M30.7505 34.7991H29.9519V35.5556H30.7505V34.7991Z" fill="black"/>
    <path d="M32.5786 37.7256H31.78V38.4821H32.5786V37.7256Z" fill="black"/>
    <path d="M36.0567 45.6179H35.2581V46.3744H36.0567V45.6179Z" fill="black"/>
    <path d="M15.593 45.7942L15.0283 45.2593L14.4637 45.7943L15.0284 46.3292L15.593 45.7942Z" fill="black"/>
    <path d="M15.0287 52.0383L14.4641 52.5732L15.0287 53.1082L15.5934 52.5732L15.0287 52.0383Z" fill="black"/>
    <path d="M15.0288 39.6075L15.5935 39.0725L15.0288 38.5375L14.4641 39.0725L15.0288 39.6075Z" fill="black"/>
    <path d="M11.4831 41.8979L10.9185 42.4329L11.4832 42.9678L12.0478 42.4328L11.4831 41.8979Z" fill="black"/>
    <path d="M18.6046 42.9673L19.1692 42.4324L18.6046 41.8975L18.0399 42.4324L18.6046 42.9673Z" fill="black"/>
    <path d="M11.482 49.8484L12.0466 49.3135L11.482 48.7786L10.9174 49.3135L11.482 49.8484Z" fill="black"/>
    <path d="M18.0396 49.3135L18.6042 49.8484L19.1689 49.3135L18.6042 48.7786L18.0396 49.3135Z" fill="black"/>
    <path d="M28.6961 31.2243H28.325V32.9385V41.0331H29.0672V33.6484C34.0868 33.8336 38.11 37.76 38.11 42.56C38.11 45.8373 36.2087 48.8348 33.2075 50.3886C33.3112 49.9219 33.3833 49.4844 33.4114 49.1144C33.5112 47.8068 33.0719 46.5118 32.2065 45.5613C31.6691 44.9711 31.0131 44.554 30.2951 44.3326C30.9033 43.3879 30.8078 42.1928 30.8026 42.1342L30.7765 41.838L30.4638 41.8131C30.3916 41.8074 28.6826 41.6831 27.6692 42.6433C27.5078 42.7962 27.3632 42.9549 27.2352 43.1161C27.0391 42.0568 26.4992 41.0632 25.6855 40.3024L25.1643 40.8028C26.0616 41.6418 26.5763 42.808 26.5763 44.0023V44.5441C26.1138 44.3264 25.6226 44.1967 25.1123 44.1599C25.0132 44.1526 24.913 44.1491 24.8144 44.1491C23.6275 44.1491 22.5172 44.6506 21.688 45.5612C21.2284 46.066 20.8905 46.6683 20.6882 47.3177L19.0783 45.7923L21.8871 43.1313V44.0682H22.6293V40.6946C22.6293 39.2203 22.0174 37.8389 20.9062 36.8052C20.1481 36.0995 19.2178 35.6172 18.2069 35.3911C18.2702 31.2153 20.3521 29.6116 20.3722 29.5966L21.2335 28.9667H20.1455C19.4141 28.9667 18.7446 29.0529 18.1396 29.2221C18.5171 25.7109 20.3144 24.3303 20.3321 24.3171L21.1934 23.6873H20.1054C17.1321 23.6873 15.6405 25.0413 14.8928 26.3733C14.0308 25.3898 12.7609 24.8908 11.1059 24.8908H10.0183L10.8792 25.5207C10.8896 25.5282 11.8149 26.2239 12.3424 27.9698C11.5188 27.6918 10.5872 27.5501 9.54949 27.5501H8.46152L9.32268 28.1799C9.34517 28.1963 11.5721 29.8726 11.9573 34.2601L12.6969 34.2019C12.4198 31.0455 11.2407 29.193 10.467 28.2955C12.0487 28.4468 13.3033 29.0036 14.205 29.9562C15.8663 31.7112 15.9032 34.3575 15.8637 35.2442H13.0916C11.5784 35.2442 10.1493 35.7964 9.06781 36.7991C7.95193 37.8327 7.3374 39.2163 7.3374 40.6948V50.8621C7.3374 52.3477 7.95728 53.7362 9.08273 54.7719C10.1622 55.7654 11.5859 56.3127 13.0917 56.3127H16.8761C18.3846 56.3127 19.8104 55.7633 20.8903 54.7659C21.2359 54.4474 21.5342 54.0932 21.7831 53.7083C22.6125 55.4367 23.6149 56.3124 24.7676 56.3124C25.4928 56.3124 26.1744 55.886 26.7563 55.4862C26.8719 55.4069 27.021 55.4091 27.1362 55.4918C27.6192 55.8381 28.2808 56.3124 29.0366 56.3124C30.2536 56.3124 31.3191 55.3327 32.2057 53.3999C34.5761 52.7111 36.7061 51.3053 38.2178 49.4267C39.817 47.4397 40.6624 45.0653 40.6624 42.5602C40.6624 36.3095 35.2943 31.2243 28.6961 31.2243ZM14.1105 28.9041C13.8287 28.6863 13.5261 28.4938 13.2016 28.3284C12.9104 27.0542 12.408 26.1881 11.9968 25.6545C13.1214 25.8167 13.9764 26.3036 14.5475 27.1075C14.3034 27.7358 14.1752 28.364 14.1105 28.9041ZM28.194 43.1405C28.7324 42.6306 29.5947 42.5271 30.0665 42.5112C30.0515 42.9258 29.9559 43.6577 29.508 44.1714C29.3669 44.1568 29.2242 44.1492 29.0802 44.1492C28.9818 44.1492 28.8815 44.1528 28.7823 44.1599C28.2773 44.1964 27.7912 44.324 27.3329 44.5377C27.3972 44.1528 27.681 43.6266 28.194 43.1405ZM18.5537 45.2952L15.5145 42.4156L18.5539 39.536L21.5934 42.4154L18.5537 45.2952ZM14.4646 49.1691L11.4247 52.0489L8.38522 49.1695L11.4251 46.2896L14.4646 49.1691ZM8.38567 42.4158L11.4257 39.5358L14.4649 42.4156L11.4251 45.2953L8.38567 42.4158ZM11.9499 45.7925L14.9897 42.9127L18.0288 45.7923L14.9893 48.672L11.9499 45.7925ZM21.8872 40.6947V41.6994L19.0787 39.0388L20.6386 37.561C21.4456 38.4281 21.8872 39.5275 21.8872 40.6947ZM14.8015 29.5343C14.8322 28.9122 14.9477 28.043 15.3055 27.1983C15.9923 25.5809 17.3001 24.6555 19.1991 24.4396C18.5282 25.2541 17.5757 26.8505 17.3679 29.498C17.0135 29.6564 16.6868 29.8497 16.3896 30.0782L16.8573 30.6242C17.4899 30.1379 18.2892 29.8357 19.241 29.7217C18.5374 30.586 17.5324 32.3278 17.4655 35.2727C17.2708 35.254 17.0742 35.244 16.876 35.244H16.6087C16.6555 34.24 16.5996 31.4775 14.8015 29.5343ZM16.876 35.9472C18.0719 35.9472 19.2057 36.3438 20.1087 37.0687L18.554 38.5416L15.8154 35.9472H16.876ZM18.0291 39.0388L14.9897 41.9183L11.9505 39.0387L14.9897 36.1593L18.0291 39.0388ZM13.0916 35.9472H14.1641L11.4258 38.5416L9.86566 37.0634C10.7682 36.3419 11.8995 35.9472 13.0916 35.9472ZM8.07959 40.6947C8.07959 39.5236 8.52349 38.4219 9.33463 37.5546L10.9011 39.0389L8.07952 41.7122L8.07959 40.6947ZM8.07959 43.1202L10.9003 45.7925L8.07952 48.4648L8.07959 43.1202ZM8.07959 50.8618V49.8742L10.8999 52.546L9.34791 54.0163C8.52824 53.1467 8.07959 52.0396 8.07959 50.8618ZM13.0916 55.6094C11.9066 55.6094 10.7808 55.2191 9.88088 54.5058L11.4247 53.0433L14.1333 55.6094H13.0916ZM11.9494 52.5462L14.9894 49.6662L18.0294 52.5463L14.9899 55.4266L11.9494 52.5462ZM16.876 55.6094H15.8464L18.5541 53.0434L20.0922 54.5007C19.1915 55.2174 18.0636 55.6094 16.876 55.6094ZM20.6244 54.0104L19.0789 52.5462L20.2563 51.4304L19.7316 50.9333L18.5541 52.0491L15.5142 49.1691L18.5536 46.2896L20.5078 48.1412C20.4671 48.4614 20.4585 48.7875 20.4834 49.1145C20.5477 49.9564 20.8657 51.4503 21.4187 52.8655C21.213 53.2833 20.9469 53.6668 20.6244 54.0104ZM31.609 52.9321C31.0743 54.1534 30.1938 55.6091 29.0366 55.6091C28.568 55.6091 28.1016 55.3021 27.5841 54.931C27.3928 54.7938 27.1671 54.725 26.9415 54.725C26.7244 54.725 26.5071 54.7888 26.3207 54.9168C25.8331 55.2518 25.2707 55.6091 24.7676 55.6091C23.6093 55.6091 22.7525 54.1496 22.2376 52.9252C21.6339 51.4895 21.2888 49.9171 21.2237 49.0637C21.138 47.9402 21.5121 46.8311 22.2502 46.0205C22.9928 45.205 24.0019 44.7854 25.0561 44.861C25.5452 44.8964 26.014 45.0362 26.4495 45.2766C26.4904 45.2993 26.5329 45.3183 26.5764 45.3348V46.2784H27.3186V45.3347C27.3619 45.3182 27.4044 45.2991 27.4454 45.2766C27.8809 45.0362 28.3497 44.8964 28.8387 44.861C29.8954 44.7853 30.9019 45.2051 31.6446 46.0205C32.3827 46.8312 32.7568 47.9404 32.6712 49.0637C32.5927 50.0922 32.156 51.683 31.609 52.9321ZM32.5606 52.545C32.7152 52.1353 32.8566 51.708 32.9782 51.2852C36.552 49.7093 38.8522 46.304 38.8522 42.56C38.8522 37.3725 34.4961 33.1313 29.0672 32.9456V31.9332C35.085 32.1194 39.9202 36.815 39.9202 42.56C39.9202 47.0195 36.9301 51.0252 32.5606 52.545Z" fill="black"/>
    <path d="M30.5679 46.7511C31.1034 47.3391 31.3743 48.1528 31.3109 48.983C31.2822 49.3588 31.1934 49.8456 31.0541 50.3906L31.7754 50.5561C31.9243 49.974 32.0197 49.4476 32.0513 49.0338C32.1287 48.0192 31.7929 47.0198 31.1299 46.2917L30.5679 46.7511Z" fill="black"/>
    <path d="M30.3359 52.5035L31.0214 52.7728C31.1782 52.4145 31.3282 52.0212 31.467 51.6036L30.7592 51.3923C30.6269 51.7903 30.4844 52.1642 30.3359 52.5035Z" fill="black"/>
    <path d="M36.9761 31.1762H37.7183V30.3052H38.6378V29.6021H37.7183V28.731H36.9761V29.6021H36.0566V30.3052H36.9761V31.1762Z" fill="black"/>
    <path d="M24.0499 36.8183H24.7921V35.9472H25.7116V35.2441H24.7921V34.373H24.0499V35.2441H23.1304V35.9472H24.0499V36.8183Z" fill="black"/>
    <path d="M27.1055 28.5637H27.8477V27.6926H28.7671V26.9895H27.8477V26.1184H27.1055V26.9895H26.186V27.6926H27.1055V28.5637Z" fill="black"/>
    </svg>
    